<svg viewBox="0 0 32 32" xml:space="preserve" xmlns="http://www.w3.org/2000/svg" enable-background="new 0 0 32 32"><path d="M7 24h0c-1.1 0-2-.9-2-2V10c0-1.1.9-2 2-2h0c1.1 0 2 .9 2 2v12c0 1.1-.9 2-2 2zM3 21h0c-1.1 0-2-.9-2-2v-6c0-1.1.9-2 2-2h0c1.1 0 2 .9 2 2v6c0 1.1-.9 2-2 2zM25 8h0c1.1 0 2 .9 2 2v12c0 1.1-.9 2-2 2h0c-1.1 0-2-.9-2-2V10c0-1.1.9-2 2-2zM29 11h0c1.1 0 2 .9 2 2v6c0 1.1-.9 2-2 2h0c-1.1 0-2-.9-2-2v-6c0-1.1.9-2 2-2zM9 16h14" fill="none" stroke="#ffffff" stroke-width="2" stroke-linecap="round" stroke-linejoin="round" stroke-miterlimit="10" class="stroke-000000"></path></svg>